<?xml version="1.0" encoding="iso-8859-1"?>
<!-- Uploaded to: SVG Repo, www.svgrepo.com, Generator: SVG Repo Mixer Tools -->
<svg fill="#ffffff" height="800px" width="800px" version="1.1" id="Layer_1" xmlns="http://www.w3.org/2000/svg" xmlns:xlink="http://www.w3.org/1999/xlink" 
	 viewBox="0 0 511.999 511.999" xml:space="preserve">
<g>
	<g>
		<path d="M184.292,171.292c-11.188,0-22.064,2.15-32.327,6.39c-4.762,1.968-7.027,7.423-5.06,12.185
			c1.968,4.763,7.423,7.03,12.185,5.06c7.991-3.301,16.471-4.976,25.203-4.976c36.419,0,66.048,29.629,66.048,66.048
			c0,36.418-29.629,66.048-66.048,66.048c-36.418,0-66.048-29.629-66.048-66.048c0-18.047,7.143-34.903,20.114-47.46
			c3.702-3.584,3.798-9.49,0.214-13.192c-3.584-3.702-9.49-3.798-13.192-0.214C108.745,211.237,99.586,232.853,99.586,256
			c0,46.707,37.999,84.707,84.707,84.707s84.707-37.999,84.707-84.707C268.999,209.291,231,171.292,184.292,171.292z"/>
	</g>
</g>
<g>
	<g>
		<path d="M502.668,71.706H317.685c-5.152,0-9.33,4.177-9.33,9.33v48.931c-23.019-4.38-40.478-24.655-40.478-48.931
			c0-5.152-4.177-9.33-9.33-9.33h-72.34c-35.954,0-70.417,10.202-100.154,29.248c-8.744-7.089-19.717-11.049-31.138-11.049
			c-27.273,0-49.46,22.187-49.46,49.46c0,13.024,5.196,25.474,14.182,34.648C6.639,199.561-0.164,227.856,0.003,257.072
			c0.277,48.575,19.285,94.315,53.523,128.79c34.221,34.458,79.791,53.783,128.318,54.416c0.812,0.01,1.615,0.016,2.424,0.016
			c99.792,0,182.229-80.449,184.279-180.439c0.014-0.653,0.024-1.305,0.03-1.953c0.311-30.737,23.505-56.986,53.949-61.057
			l81.38-10.883c4.634-0.62,8.093-4.573,8.093-9.248V81.036C511.998,75.883,507.821,71.706,502.668,71.706z M54.915,108.564
			c5.33,0,10.502,1.391,15.052,3.943c-5.645,4.517-11.079,9.374-16.26,14.584c-9.157,9.209-17.213,19.186-24.128,29.762
			c-3.502-5.087-5.465-11.178-5.465-17.489C24.115,122.381,37.931,108.564,54.915,108.564z M493.339,168.548l-22.492,3.008v-38.374
			c0-5.152-4.177-9.33-9.33-9.33c-5.153,0-9.33,4.177-9.33,9.33v40.869l-32.136,4.298c-19.279,2.579-36.988,12.025-49.865,26.602
			c-12.874,14.572-20.071,33.31-20.268,52.765c-0.006,0.585-0.015,1.169-0.027,1.756c-1.842,89.867-75.928,162.163-165.626,162.163
			c-0.724,0-1.454-0.005-2.179-0.015c-43.609-0.568-84.564-17.937-115.321-48.906C35.992,341.73,18.909,300.623,18.66,256.966
			c-0.249-43.704,16.897-85.155,48.279-116.717c31.985-32.168,74.341-49.884,119.267-49.884h63.645
			c4.564,33.356,33.245,59.138,67.833,59.138c5.153,0,9.33-4.177,9.33-9.33V90.365h125.173v16.694c0,5.152,4.177,9.33,9.33,9.33
			c5.152,0,9.33-4.177,9.33-9.33V90.365h22.492V168.548z"/>
	</g>
</g>
</svg>